<?xml version="1.0" standalone="no"?>
<!DOCTYPE svg PUBLIC "-//W3C//DTD SVG 20010904//EN"
 "http://www.w3.org/TR/2001/REC-SVG-20010904/DTD/svg10.dtd">
<svg version="1.0" xmlns="http://www.w3.org/2000/svg"
 width="100.000000pt" height="100.000000pt" viewBox="0 0 100.000000 100.000000"
 preserveAspectRatio="xMidYMid meet">
<metadata>
Created by potrace 1.16, written by Peter Selinger 2001-2019
</metadata>
<g transform="translate(0.000000,100.000000) scale(0.100000,-0.100000)"
fill="#000000" stroke="none">
<path d="M471 968 c-18 -17 -22 -19 -18 -6 5 15 -13 17 -214 18 l-220 1 3
-118 c3 -114 4 -118 26 -121 25 -4 96 34 126 67 14 16 31 21 66 21 43 0 49 3
54 25 7 29 44 50 103 60 26 4 55 18 74 36 l31 29 26 -25 c13 -14 43 -30 66
-36 76 -21 95 -31 105 -58 10 -24 10 -23 8 13 -3 35 -6 40 -32 43 -16 3 -32 9
-36 14 -3 5 -13 7 -22 3 -10 -4 -17 -1 -17 6 0 7 -7 10 -16 6 -10 -4 -23 3
-36 19 -24 31 -47 32 -77 3z"/>
<path d="M566 971 c5 -4 32 -14 59 -20 57 -14 98 -37 90 -51 -4 -6 -1 -10 4
-10 6 0 11 -6 11 -12 0 -9 15 -12 51 -9 36 2 49 0 45 -8 -4 -6 -24 -11 -44
-12 -37 -1 -37 -1 -7 -8 38 -10 75 -29 75 -41 0 -4 15 -18 34 -29 35 -22 86
-28 86 -10 0 6 -9 8 -20 4 -12 -4 -20 -2 -20 5 0 6 -6 8 -12 4 -10 -5 -10 -4
-2 5 8 9 18 9 38 1 15 -5 32 -10 37 -10 5 0 9 47 9 105 l0 105 -222 0 c-125 0
-218 -4 -212 -9z"/>
<path d="M438 829 c-168 -24 -298 -167 -298 -329 0 -166 126 -301 307 -331
205 -34 403 108 420 301 21 224 -182 393 -429 359z m193 -86 c146 -65 209
-219 143 -351 -51 -102 -180 -170 -297 -158 -279 29 -375 346 -147 484 30 18
69 37 85 42 48 15 164 6 216 -17z"/>
<path d="M970 710 c-10 -31 -11 -48 -2 -79 17 -56 15 -75 -13 -101 l-24 -23
24 -19 c34 -27 39 -52 20 -108 -13 -40 -14 -57 -6 -82 6 -17 11 -32 11 -33 0
-2 -16 -6 -35 -9 -19 -4 -56 -25 -82 -48 -43 -37 -50 -40 -89 -34 -41 5 -43 4
-61 -32 -11 -22 -28 -40 -43 -44 -14 -4 -45 -12 -69 -18 -24 -6 -55 -23 -69
-37 -21 -22 -27 -23 -36 -11 -18 24 -59 45 -112 57 -56 13 -117 64 -89 75 23
8 18 26 -7 25 -21 0 -22 -1 -3 -8 16 -7 14 -9 -14 -14 -56 -12 -70 -8 -108 27
-45 40 -75 56 -102 56 -25 0 -37 18 -22 33 14 14 14 46 -1 101 -9 36 -9 50 2
73 20 42 20 50 -1 69 -23 21 -24 40 -3 89 10 24 13 51 10 71 -7 36 -30 61 -41
44 -3 -5 -1 -10 5 -10 6 0 8 -5 4 -12 -4 -6 -3 -8 3 -5 7 5 11 -6 10 -28 -1
-19 -4 -35 -9 -35 -4 0 -4 -7 -1 -17 4 -9 2 -14 -3 -11 -13 9 -16 -69 -4 -92
6 -12 15 -18 19 -15 15 8 21 -23 7 -34 -7 -6 -15 -9 -18 -6 -2 3 -5 -1 -6 -8
-9 -60 -9 -77 0 -77 5 0 6 -4 3 -10 -3 -5 -2 -10 3 -10 9 0 11 -71 2 -80 -3
-3 -4 -62 -2 -132 l4 -128 216 1 c119 0 211 3 205 6 -17 6 -16 23 1 23 8 0 17
-7 20 -16 4 -9 9 -14 13 -11 3 4 12 -1 20 -11 10 -12 16 -14 19 -4 3 6 9 10
14 7 4 -3 14 3 21 12 12 14 12 16 0 8 -10 -6 -12 -4 -6 5 6 10 11 10 20 -3 11
-15 39 -17 224 -17 l211 0 0 140 c0 77 -3 140 -7 140 -5 0 -8 14 -9 30 -1 17
2 30 6 30 4 0 7 63 7 140 0 77 -3 140 -6 140 -3 0 -6 18 -6 40 0 22 3 40 8 40
4 0 7 7 7 15 0 29 -17 15 -30 -25z"/>
</g>
</svg>
